# xmcd CD database file
#
# Track frame offsets:
#	150
#	18104
#	31603
#	42618
#	55767
#	68852
#	79548
#	92889
#	107612
#	125629
#	139459
#	151683
#	163903
#	176285
#
# Disc length: 2559 seconds
#
# Revision: 0
# Processed by: cddbd v1.5.1PL2 Copyright (c) Steve Scherf et al.
# Submitted via: CDex 1.50beta9
#
DISCID=ae09fd0e
DTITLE=Altemar Dutra - A volta do seresteiro - cd 4
DYEAR=2006
DGENRE=Salsa
TTITLE0=serra da boa esperança
TTITLE1=oferenda
TTITLE2=vai, andorinha (vola, colomba)
TTITLE3=um jeito estúpido de te amar
TTITLE4=seguirei meu caminho (seguiré mi camino)
TTITLE5=quem é?
TTITLE6=cabecinha no ombro
TTITLE7=abandono
TTITLE8=eu sonhei que tu estavas tão linda
TTITLE9=que será? (che sarà?)
TTITLE10=o bilhete
TTITLE11=eu sei que vou te amar
TTITLE12=tudo de mim
TTITLE13=balada para qualquer natal
EXTD=YEAR: 2006
EXTT0=
EXTT1=
EXTT2=
EXTT3=
EXTT4=
EXTT5=
EXTT6=
EXTT7=
EXTT8=
EXTT9=
EXTT10=
EXTT11=
EXTT12=
EXTT13=
PLAYORDER=
